# xmcd CD database file
#
# Track frame offsets:
#	150
#	14924
#	31170
#	51656
#	64115
#	79800
#	91737
#	109027
#	124740
#	140185
#	152854
#	165594
#	183941
#	195788
#
# Disc length: 2929 seconds
#
# Revision: 0
# Processed by: cddbd v1.5PL3 Copyright (c) Steve Scherf et al.
# Submitted via: CDex 1.51
#
DISCID=bb0b6f0e
DTITLE=Flint Thompson - Flint Thompson
DYEAR=1900
DGENRE=Country
TTITLE0=Just Enough
TTITLE1=The Ordinary
TTITLE2=I Never Win
TTITLE3=In The Garden
TTITLE4=He Who Made The Rain
TTITLE5=Unplug The Jukebox
TTITLE6=He Loved us To Death
TTITLE7=Crazy 'Bout You
TTITLE8=Old Tyme Religion
TTITLE9=Sure Feels Right
TTITLE10=Hoedown
TTITLE11=I Dont Want To Go Alone
TTITLE12=Good lovin'
TTITLE13=My Time With You
EXTD=
EXTT0=
EXTT1=
EXTT2=
EXTT3=
EXTT4=
EXTT5=
EXTT6=
EXTT7=
EXTT8=
EXTT9=
EXTT10=
EXTT11=
EXTT12=
EXTT13=
PLAYORDER=
